# xmcd
#
# Track frame offsets: 
#        150
#        47605
#        76350
#        106892
#        131330
#        144177
#        157793
#        165020
#        227049
#
# Disc length: 3205 seconds
#
# Revision: 0
# Processed by: cddbd v1.5.2PL0 Copyright (c) Steve Scherf et al.
# Submitted via: ExactAudioCopy v0.99pb4
#
DISCID=570c8309
DTITLE=Peter Rosel - Mozart K.475, K.545, K.455, K.355(576b)
DYEAR=1975
DGENRE=Classical
TTITLE0=Fantasy in C minor K.475
TTITLE1=Piano Sonata in C minor K.457-I. Allegro
TTITLE2=Piano Sonata in C minor K.457-II. Adagio
TTITLE3=Piano Sonata in C minor K.457-III. Molto allegro
TTITLE4=Piano Sonata in No.15 in C major K.545-I. Allegro
TTITLE5=Piano Sonata in No.15 in C major K.545-II. Andante
TTITLE6=Piano Sonata in No.15 in C major K.545-III. Rondo Allegretto
TTITLE7=10 Variations on Gluck's Unser dummer Pobel meint K.455
TTITLE8=Minuet in D major K.355 (576b)
EXTD=
EXTT0=
EXTT1=
EXTT2=
EXTT3=
EXTT4=
EXTT5=
EXTT6=
EXTT7=
EXTT8=
PLAYORDER=
